<svg version="1.1" id="Layer_1" xmlns="http://www.w3.org/2000/svg" xmlns:xlink="http://www.w3.org/1999/xlink" x="0px" y="0px"
	 width="100%" viewBox="0 0 142 148" enable-background="new 0 0 142 148" xml:space="preserve">
<path fill="#FDFEFD" opacity="1.000000" stroke="none" 
	d="
M80.000000,149.000000 
	C53.355900,149.000000 27.211800,149.000000 1.033850,149.000000 
	C1.033850,99.731796 1.033850,50.463570 1.033850,1.097669 
	C48.227222,1.097669 95.454712,1.097669 142.841095,1.097669 
	C142.841095,50.332924 142.841095,99.666412 142.841095,149.000000 
	C122.130585,149.000000 101.315292,149.000000 80.000000,149.000000 
M88.114105,112.654366 
	C83.630096,115.209557 79.230721,117.935928 74.612328,120.219322 
	C73.159508,120.937607 70.732582,121.164413 69.407753,120.430901 
	C57.905140,114.062302 46.596184,107.344757 35.120811,100.925522 
	C32.531891,99.477303 31.868511,97.704613 31.898237,94.920738 
	C32.029800,82.598877 32.069656,70.273071 31.880779,57.952702 
	C31.828650,54.552181 32.815884,52.617245 35.894577,50.896736 
	C51.585297,42.128105 67.122803,33.085121 82.702370,24.118074 
	C84.194763,23.259104 85.607414,22.261576 87.551796,21.009909 
	C82.397743,18.095537 78.007774,15.412260 73.408226,13.156305 
	C72.284294,12.605045 70.233696,13.031457 69.014725,13.723129 
	C52.221516,23.251963 35.461525,32.841805 18.826817,42.643143 
	C17.397861,43.485100 16.130907,45.925701 16.113686,47.637012 
	C15.922662,66.619583 15.920980,85.605530 16.116074,104.588013 
	C16.133726,106.305565 17.436663,108.744606 18.881872,109.600479 
	C35.493542,119.438103 52.217834,129.087952 69.021683,138.594147 
	C70.394966,139.371017 72.954239,139.410568 74.315102,138.643814 
	C91.280243,129.085129 108.133949,119.328262 124.981842,109.562889 
	C126.048424,108.944672 127.577942,107.870094 127.621185,106.948204 
	C127.872894,101.582863 127.744408,96.199684 127.744408,89.825592 
	C114.058701,97.697113 101.396599,104.979889 88.114105,112.654366 
M113.008041,61.539219 
	C100.451134,68.765678 87.870232,75.951195 75.370331,83.274956 
	C73.948746,84.107872 72.066849,85.647614 71.965866,86.978546 
	C71.570534,92.188683 71.804306,97.446548 71.804306,102.466576 
	C72.613594,102.722580 72.825638,102.865959 72.923759,102.809914 
	C90.560547,92.735947 108.202721,82.671089 125.781151,72.496132 
	C126.731163,71.946243 127.674767,70.490273 127.717354,69.420105 
	C127.919403,64.342377 127.807648,59.252163 127.807648,53.158386 
	C122.492744,56.164883 118.067719,58.668007 113.008041,61.539219 
M82.148567,42.669102 
	C79.991890,43.921700 77.756844,45.059971 75.705452,46.466167 
	C74.283195,47.441097 72.106842,48.706135 72.007133,49.977940 
	C71.590569,55.291420 71.831619,60.656452 71.831619,66.983719 
	C88.226646,57.549824 103.552368,48.731213 119.524544,39.540630 
	C114.784729,36.740978 110.931274,34.105858 106.753723,32.170254 
	C105.031174,31.372135 102.256828,31.373867 100.573868,32.224548 
	C94.497627,35.295898 88.682091,38.883026 82.148567,42.669102 
z"/>
<path fill="#434A4B" opacity="1.000000" stroke="none" 
	d="
M88.424301,112.458511 
	C101.396599,104.979889 114.058701,97.697113 127.744408,89.825592 
	C127.744408,96.199684 127.872894,101.582863 127.621185,106.948204 
	C127.577942,107.870094 126.048424,108.944672 124.981842,109.562889 
	C108.133949,119.328262 91.280243,129.085129 74.315102,138.643814 
	C72.954239,139.410568 70.394966,139.371017 69.021683,138.594147 
	C52.217834,129.087952 35.493542,119.438103 18.881872,109.600479 
	C17.436663,108.744606 16.133726,106.305565 16.116074,104.588013 
	C15.920980,85.605530 15.922662,66.619583 16.113686,47.637012 
	C16.130907,45.925701 17.397861,43.485100 18.826817,42.643143 
	C35.461525,32.841805 52.221516,23.251963 69.014725,13.723129 
	C70.233696,13.031457 72.284294,12.605045 73.408226,13.156305 
	C78.007774,15.412260 82.397743,18.095537 87.551796,21.009909 
	C85.607414,22.261576 84.194763,23.259104 82.702370,24.118074 
	C67.122803,33.085121 51.585297,42.128105 35.894577,50.896736 
	C32.815884,52.617245 31.828650,54.552181 31.880779,57.952702 
	C32.069656,70.273071 32.029800,82.598877 31.898237,94.920738 
	C31.868511,97.704613 32.531891,99.477303 35.120811,100.925522 
	C46.596184,107.344757 57.905140,114.062302 69.407753,120.430901 
	C70.732582,121.164413 73.159508,120.937607 74.612328,120.219322 
	C79.230721,117.935928 83.630096,115.209557 88.424301,112.458511 
z"/>
<path fill="#63A93E" opacity="1.000000" stroke="none" 
	d="
M113.325363,61.355171 
	C118.067719,58.668007 122.492744,56.164883 127.807648,53.158386 
	C127.807648,59.252163 127.919403,64.342377 127.717354,69.420105 
	C127.674767,70.490273 126.731163,71.946243 125.781151,72.496132 
	C108.202721,82.671089 90.560547,92.735947 72.923759,102.809914 
	C72.825638,102.865959 72.613594,102.722580 71.804306,102.466576 
	C71.804306,97.446548 71.570534,92.188683 71.965866,86.978546 
	C72.066849,85.647614 73.948746,84.107872 75.370331,83.274956 
	C87.870232,75.951195 100.451134,68.765678 113.325363,61.355171 
z"/>
<path fill="#63A93E" opacity="1.000000" stroke="none" 
	d="
M82.458336,42.472252 
	C88.682091,38.883026 94.497627,35.295898 100.573868,32.224548 
	C102.256828,31.373867 105.031174,31.372135 106.753723,32.170254 
	C110.931274,34.105858 114.784729,36.740978 119.524544,39.540630 
	C103.552368,48.731213 88.226646,57.549824 71.831619,66.983719 
	C71.831619,60.656452 71.590569,55.291420 72.007133,49.977940 
	C72.106842,48.706135 74.283195,47.441097 75.705452,46.466167 
	C77.756844,45.059971 79.991890,43.921700 82.458336,42.472252 
z"/>
</svg>